<?xml version="1.0" encoding="utf-8"?>
<!-- Generator: Adobe Illustrator 18.1.1, SVG Export Plug-In . SVG Version: 6.00 Build 0)  -->
<svg version="1.1" viewBox="0 0 94.1 45.3" class="svg-content>
<path fill-rule="evenodd" clip-rule="evenodd" fill="#323237" stroke="#323237" stroke-miterlimit="10" d="M14.5,4.8l8.2,3.4
	c-0.2,0.5-0.3,0.9-0.3,1.4c0,2.2,2.4,4,5.4,4s5.4-1.8,5.4-4c0-1.3-0.8-2.5-2.2-3.2l4.7-5.7l4.8,5.9c-1.2,0.7-1.9,1.8-1.9,3
	c0,2.2,2.4,4,5.4,4c3,0,5.4-1.8,5.4-4c0-0.5-0.1-1.1-0.4-1.6l8-3.3l-6,12.2c-4.6-0.9-9.7-1.3-14.9-1.3c-5.4,0-10.8,0.5-15.5,1.4
	L14.5,4.8z"/>
<text transform="matrix(1 0 0 1 -4.0803 44.2908)" display="none" fill="#323237" font-family="'WebFontFont'" font-size="48" letter-spacing="-1">reale</text>
<g>
	<path fill="#323237" d="M3.9,25c0.5-1.4,1.3-2.6,2.3-3.5c1-0.9,2.4-1.3,4.3-1.3c1.1,0,2,0.1,2.5,0.4c0.2,0.4,0.3,0.7,0.5,1.2
		c0.1,0.4,0.2,0.9,0.2,1.5c0,0.4,0,0.8-0.1,1.1c-0.1,0.3-0.1,0.5-0.2,0.7c-0.4-0.2-0.8-0.4-1.3-0.5c-0.5-0.1-1.1-0.2-1.6-0.2
		c-2.9,0-5,1.8-6.2,5.4v14.3c-0.4,0.2-1.1,0.3-2.1,0.3c-1,0-1.7-0.1-2.1-0.3V21.4c0.4-0.2,0.9-0.4,1.5-0.5c0.6-0.1,1.2-0.2,1.9-0.2
		L3.7,25H3.9z"/>
	<path fill="#323237" d="M18.7,34c0.1,2.6,0.9,4.5,2.4,5.7c1.5,1.2,3.6,1.8,6.2,1.8c1.5,0,2.8-0.2,4-0.5c1.2-0.3,2.3-0.8,3.2-1.3
		c0.1,0.7,0,1.4-0.2,2.2c-0.2,0.8-0.5,1.3-0.8,1.7c-0.7,0.4-1.7,0.8-2.9,1.2c-1.2,0.4-2.6,0.5-4.2,0.5c-1.9,0-3.6-0.3-5.1-0.9
		c-1.5-0.6-2.8-1.4-3.8-2.5c-1-1.1-1.8-2.4-2.3-3.9c-0.5-1.5-0.8-3.2-0.8-5.1c0-1.9,0.3-3.6,0.8-5.1c0.5-1.6,1.3-2.9,2.3-4
		c1-1.1,2.2-2,3.6-2.6c1.4-0.6,3-1,4.8-1c1.6,0,2.9,0.2,4.1,0.7c1.2,0.5,2.1,1.2,2.9,2.1c0.8,0.9,1.3,1.9,1.7,3.1
		c0.4,1.2,0.6,2.5,0.6,4s-0.2,2.7-0.6,3.9H18.7z M30.9,30.5c0.1-0.8,0.1-1.6,0-2.4c-0.1-0.8-0.4-1.5-0.8-2.2c-0.4-0.6-1-1.2-1.7-1.6
		c-0.7-0.4-1.7-0.6-2.8-0.6c-2,0-3.7,0.6-4.8,1.8c-1.2,1.2-1.9,2.9-2,4.9H30.9z"/>
	<path fill="#323237" d="M52.3,42.4c-0.7,0.9-1.6,1.6-2.7,2.1c-1.1,0.5-2.5,0.7-4.1,0.7c-1,0-2-0.1-3-0.4c-0.9-0.3-1.8-0.7-2.5-1.2
		c-0.7-0.6-1.3-1.3-1.7-2.2c-0.4-0.9-0.6-2-0.6-3.3c0-1.4,0.2-2.6,0.7-3.6c0.5-1,1.2-1.8,2-2.4c0.9-0.6,1.9-1.1,3-1.4
		c1.2-0.3,2.4-0.5,3.8-0.5c0.8,0,1.6,0.1,2.5,0.2c0.8,0.1,1.6,0.3,2.3,0.6v-1.2c0-2-0.4-3.5-1.2-4.3c-0.8-0.9-2.2-1.3-4.1-1.3
		c-1.4,0-2.7,0.2-3.9,0.6s-2.4,0.9-3.4,1.5c-0.2-0.6-0.2-1.3-0.1-2.1c0.1-0.8,0.3-1.5,0.6-2c0.8-0.5,1.9-0.9,3.2-1.2
		c1.3-0.3,2.8-0.5,4.4-0.5c2.9,0,5,0.7,6.5,2c1.4,1.4,2.2,3.7,2.2,7v10.5c0,0.7,0.2,1.2,0.5,1.4c0.3,0.2,0.7,0.4,1.2,0.4
		c0.4,0,0.9-0.1,1.3-0.2c0.4-0.1,0.7-0.3,1-0.5c0.1,0.6,0,1.3-0.1,1.9c-0.1,0.7-0.4,1.2-0.7,1.7C59,44.6,58.5,44.9,58,45
		c-0.5,0.2-1.1,0.2-1.8,0.2c-1.1,0-1.9-0.2-2.6-0.7c-0.6-0.5-1-1.2-1.2-2.1H52.3z M52.2,34.3c-0.6-0.2-1.2-0.4-1.9-0.5
		c-0.7-0.1-1.4-0.2-2.3-0.2c-2,0-3.5,0.4-4.5,1.2S42,36.6,42,37.9c0,1.2,0.4,2.2,1.3,2.7c0.9,0.6,2,0.9,3.3,0.9c1,0,2.1-0.2,3.1-0.6
		c1-0.4,1.9-1,2.5-1.9V34.3z"/>
	<path fill="#323237" d="M71.2,44.4c-0.4,0.3-0.9,0.5-1.5,0.6c-0.6,0.2-1.2,0.2-1.9,0.2c-3.3,0-4.9-1.9-4.9-5.7V9.9
		C63.9,9.3,65.2,9,67,9v29.8c0,1.1,0.2,1.8,0.6,2.1c0.4,0.4,0.9,0.5,1.6,0.5c0.6,0,1.1-0.1,1.6-0.3c0.5-0.2,0.9-0.4,1.3-0.7
		c0.1,0.7,0,1.4-0.1,2.2C71.8,43.3,71.5,43.9,71.2,44.4z"/>
	<path fill="#323237" d="M77.7,34c0.1,2.6,0.9,4.5,2.4,5.7c1.5,1.2,3.6,1.8,6.2,1.8c1.5,0,2.8-0.2,4-0.5s2.3-0.8,3.2-1.3
		c0.1,0.7,0,1.4-0.2,2.2s-0.5,1.3-0.8,1.7c-0.7,0.4-1.7,0.8-2.9,1.2c-1.2,0.4-2.6,0.5-4.2,0.5c-1.9,0-3.6-0.3-5.1-0.9
		c-1.5-0.6-2.8-1.4-3.8-2.5c-1-1.1-1.8-2.4-2.3-3.9c-0.5-1.5-0.8-3.2-0.8-5.1c0-1.9,0.3-3.6,0.8-5.1c0.5-1.6,1.3-2.9,2.3-4
		c1-1.1,2.2-2,3.6-2.6c1.4-0.6,3-1,4.8-1c1.6,0,2.9,0.2,4.1,0.7c1.2,0.5,2.1,1.2,2.9,2.1c0.8,0.9,1.3,1.9,1.7,3.1
		c0.4,1.2,0.6,2.5,0.6,4s-0.2,2.7-0.6,3.9H77.7z M90,30.5c0.1-0.8,0.1-1.6,0-2.4s-0.4-1.5-0.8-2.2c-0.4-0.6-1-1.2-1.7-1.6
		c-0.7-0.4-1.7-0.6-2.8-0.6c-2,0-3.7,0.6-4.8,1.8c-1.2,1.2-1.9,2.9-2,4.9H90z"/>
</g>
</svg>
