<?xml version="1.0" encoding="utf-8"?>
<!-- Generator: Adobe Illustrator 16.0.0, SVG Export Plug-In . SVG Version: 6.00 Build 0)  -->
<!DOCTYPE svg PUBLIC "-//W3C//DTD SVG 1.1//EN" "http://www.w3.org/Graphics/SVG/1.1/DTD/svg11.dtd">
<svg version="1.1" id="Layer_1" xmlns="http://www.w3.org/2000/svg" xmlns:xlink="http://www.w3.org/1999/xlink" x="0px" y="0px"
	 viewBox="0 0 284.88 119.413" enable-background="new 0 0 284.88 119.413"
	 xml:space="preserve" fill="#FE7B23">
<path  d="M13.293,42.842c0-14.25-0.45-16.799-6.6-17.549l-4.8-0.6c-1.05-0.75-1.05-3.15,0.15-3.75c8.399-0.75,18.749-1.2,33.449-1.2
	c9.299,0,18.149,0.75,25.049,4.5c7.2,3.75,12.45,10.5,12.45,21c0,14.249-11.25,22.049-18.75,25.049c-0.75,0.9,0,2.4,0.75,3.6
	c12,19.349,19.949,31.349,30.149,39.898c2.55,2.25,6.3,3.9,10.35,4.2c0.75,0.3,0.9,1.5,0.15,2.101c-1.35,0.449-3.75,0.75-6.6,0.75
	c-12.75,0-20.399-3.75-31.049-18.9c-3.9-5.549-10.05-15.898-14.699-22.648c-2.25-3.3-4.65-4.8-10.65-4.8c-6.75,0-7.05,0.15-7.05,3.3
	v18.899c0,15.749,0.3,17.55,9,18.749l3.15,0.45c0.9,0.75,0.6,3.3-0.3,3.75c-6.75-0.3-11.85-0.45-17.849-0.45
	c-6.3,0-11.7,0.15-18.75,0.45c-0.9-0.45-1.2-2.7-0.3-3.75l3.75-0.45c8.7-1.05,9-3,9-18.749V42.842z M25.592,64.291
	c0,2.7,0,4.35,0.45,4.95c0.45,0.45,2.7,0.75,10.35,0.75c5.4,0,11.1-0.6,15.449-3.899c4.05-3.15,7.5-8.4,7.5-18.6
	c0-11.849-7.35-23.099-23.999-23.099c-9.3,0-9.75,0.6-9.75,4.8V64.291z"/>
<path d="M101.102,72.298c0-0.9-0.031-1.739-0.09-2.52c-0.061-0.779-0.225-1.44-0.495-1.98s-0.706-0.975-1.305-1.305
	c-0.601-0.329-1.471-0.525-2.61-0.585c-1.021-0.059-1.815-0.165-2.385-0.315c-0.571-0.149-0.855-0.554-0.855-1.215
	c0-0.66,0.225-1.035,0.675-1.125 c0.45-0.09,0.824-0.135,1.125-0.135c0.12,0,0.27,0.015,0.45,0.045c0.18,0.031,0.779,0.076,1.8,0.135
	c1.02,0.061,2.565,0.105,4.635,0.135c2.07,0.031,5.024,0.045,8.865,0.045h4.32c4.62,0,8.19-0.014,10.71-0.045
	c2.52-0.03,4.379-0.075,5.58-0.135c1.199-0.059,1.919-0.104,2.16-0.135c0.239-0.03,0.419-0.045,0.54-0.045
	c0.54,0,0.855,0.211,0.945,0.63c0.09,0.42,0.135,1.141,0.135,2.16v8.28c0,0.24-0.031,0.556-0.09,0.945
	c-0.061,0.391-0.331,0.585-0.81,0.585c-0.481,0-0.871-0.194-1.17-0.585c-0.301-0.389-0.841-1.424-1.62-3.105
	c-0.301-0.599-0.69-1.229-1.17-1.89c-0.481-0.66-1.291-1.274-2.43-1.845c-1.141-0.569-2.7-1.049-4.68-1.44
	c-1.98-0.39-4.561-0.585-7.74-0.585c-1.141,0-2.025,0.061-2.655,0.18c-0.63,0.121-1.111,0.36-1.44,0.72
	c-0.33,0.36-0.54,0.871-0.63,1.53c-0.09,0.661-0.135,1.561-0.135,2.7v13.05c0,0.721,0.029,1.32,0.09,1.801
	c0.059,0.48,0.254,0.854,0.585,1.125c0.329,0.27,0.839,0.449,1.53,0.539c0.689,0.09,1.694,0.135,3.015,0.135
	c2.52,0,4.5-0.135,5.94-0.404c1.44-0.27,2.579-0.676,3.42-1.215c0.839-0.54,1.454-1.229,1.845-2.07
	c0.39-0.839,0.794-1.859,1.215-3.06c0.239-0.599,0.464-0.975,0.675-1.125c0.209-0.149,0.435-0.225,0.675-0.225
	c0.66,0,0.99,0.421,0.99,1.26c0,0.301-0.031,1.035-0.09,2.205c-0.06,1.169-0.135,2.429-0.225,3.78
	c-0.09,1.351-0.166,2.655-0.225,3.915c-0.061,1.26-0.09,2.131-0.09,2.609c0,0.181,0.014,0.481,0.045,0.9
	c0.029,0.421,0.059,0.871,0.09,1.35c0.029,0.481,0.059,0.932,0.09,1.351c0.03,0.421,0.045,0.72,0.045,0.899
	c0,0.302-0.045,0.676-0.135,1.125c-0.09,0.451-0.405,0.676-0.945,0.676c-0.36,0-0.675-0.148-0.945-0.45
	c-0.27-0.3-0.526-0.869-0.765-1.71c-0.481-1.739-1.021-3.074-1.62-4.005c-0.601-0.93-1.35-1.62-2.25-2.069
	c-0.9-0.451-1.98-0.721-3.24-0.811c-1.26-0.09-2.821-0.135-4.68-0.135c-1.08,0-1.951,0.016-2.61,0.045
	c-0.661,0.031-1.17,0.135-1.53,0.314s-0.601,0.45-0.72,0.811c-0.121,0.359-0.18,0.87-0.18,1.529v15.48c0,1.62,0.135,2.91,0.405,3.87
	s0.765,1.696,1.485,2.204c0.72,0.512,1.679,0.855,2.88,1.035c1.199,0.181,2.759,0.271,4.68,0.271c0.959,0,2.025-0.045,3.195-0.135
	c1.17-0.091,2.354-0.374,3.555-0.854c1.2-0.48,2.37-1.23,3.51-2.25c1.139-1.02,2.219-2.49,3.24-4.41
	c0.84-1.561,1.38-2.535,1.62-2.926c0.239-0.389,0.569-0.585,0.99-0.585c0.419,0,0.704,0.151,0.855,0.45
	c0.149,0.301,0.225,0.601,0.225,0.9c0,0.301-0.06,0.84-0.18,1.619c-0.121,0.781-0.241,1.682-0.36,2.701
	c-0.121,1.02-0.256,2.055-0.405,3.104c-0.15,1.05-0.256,1.995-0.315,2.835c-0.061,0.841-0.346,1.5-0.855,1.98
	c-0.511,0.479-1.426,0.719-2.745,0.719c-2.281,0-4.875-0.015-7.785-0.045c-2.911-0.03-5.685-0.075-8.325-0.135
	c-2.581-0.061-4.801-0.105-6.66-0.135c-1.86-0.031-2.94-0.045-3.24-0.045h-1.08c-1.86,0-3.375,0.014-4.545,0.045
	c-1.17,0.029-2.115,0.074-2.835,0.135c-0.72,0.06-1.291,0.104-1.71,0.135c-0.421,0.03-0.781,0.045-1.08,0.045
	c-0.36,0-0.765-0.061-1.215-0.18c-0.45-0.121-0.675-0.509-0.675-1.17c0-0.659,0.299-1.049,0.9-1.17
	c0.599-0.119,1.379-0.238,2.34-0.359c1.139-0.06,2.01-0.255,2.61-0.586c0.599-0.328,1.035-0.765,1.305-1.305s0.435-1.199,0.495-1.98
	c0.059-0.778,0.09-1.619,0.09-2.52V72.298z"/>
<path d="M157.172,98.579c-0.661,0-1.186,0.015-1.575,0.045c-0.391,0.03-0.69,0.121-0.9,0.27c-0.211,0.15-0.375,0.375-0.495,0.675
	c-0.121,0.302-0.27,0.751-0.45,1.351l-3.06,9.629c0,0.061-0.045,0.241-0.135,0.541c-0.09,0.301-0.18,0.645-0.27,1.035
	c-0.09,0.391-0.18,0.795-0.27,1.215c-0.09,0.42-0.135,0.75-0.135,0.99c0,1.14,0.464,1.83,1.395,2.069
	c0.93,0.241,1.904,0.392,2.925,0.45c1.2,0.061,2.07,0.18,2.61,0.359c0.54,0.181,0.81,0.541,0.81,1.08c0,0.661-0.27,1.035-0.81,1.125
	s-1.321,0.135-2.34,0.135c-0.24,0-0.706-0.015-1.395-0.045c-0.69-0.03-1.485-0.075-2.385-0.135c-0.9-0.061-1.8-0.105-2.7-0.135
	c-0.9-0.031-1.68-0.045-2.34-0.045c-0.241,0-0.706,0.014-1.395,0.045c-0.69,0.029-1.44,0.074-2.25,0.135
	c-0.81,0.06-1.575,0.104-2.295,0.135c-0.72,0.03-1.23,0.045-1.53,0.045c-0.299,0-0.659-0.061-1.08-0.18
	c-0.419-0.121-0.63-0.509-0.63-1.17c0-0.599,0.27-0.975,0.81-1.125c0.54-0.148,1.17-0.283,1.89-0.404
	c0.72-0.06,1.334-0.135,1.845-0.226c0.509-0.09,0.959-0.239,1.35-0.45c0.39-0.209,0.765-0.539,1.125-0.99
	c0.36-0.449,0.75-1.064,1.17-1.844c0.72-1.381,1.724-3.631,3.015-6.75c1.29-3.119,2.7-6.66,4.23-10.621
	c1.53-3.959,3.119-8.113,4.77-12.465c1.649-4.349,3.225-8.474,4.725-12.375c0.84-2.16,1.485-3.839,1.936-5.04
	c0.449-1.2,0.811-2.084,1.08-2.655c0.27-0.569,0.479-0.9,0.63-0.99c0.149-0.09,0.345-0.135,0.585-0.135
	c0.479,0,0.869,0.256,1.17,0.765c0.3,0.51,0.779,1.696,1.439,3.555c0.48,1.26,0.945,2.491,1.396,3.69
	c0.45,1.201,0.854,2.22,1.216,3.06l14.039,34.2c0.721,1.741,1.334,3.181,1.846,4.319c0.508,1.141,1.035,2.07,1.574,2.791
	c0.541,0.72,1.125,1.26,1.756,1.619c0.629,0.36,1.395,0.602,2.295,0.721c0.779,0.121,1.395,0.256,1.844,0.404
	c0.451,0.15,0.676,0.526,0.676,1.125c0,0.602-0.27,0.945-0.811,1.035c-0.539,0.09-0.959,0.135-1.26,0.135
	c-0.359,0-1.051-0.015-2.07-0.045s-2.084-0.075-3.195-0.135c-1.109-0.061-2.174-0.105-3.193-0.135
	c-1.021-0.031-1.711-0.045-2.07-0.045c-1.381,0-2.686,0.014-3.916,0.045c-1.23,0.029-2.326,0.074-3.285,0.135
	c-0.959,0.06-1.725,0.104-2.295,0.135s-0.885,0.045-0.944,0.045c-0.481,0-0.944-0.045-1.396-0.135
	c-0.449-0.09-0.674-0.464-0.674-1.125c0-0.599,0.314-0.99,0.944-1.17s1.396-0.328,2.296-0.449c1.199-0.12,2.023-0.315,2.475-0.586
	c0.449-0.27,0.674-0.733,0.674-1.395c0-0.479-0.076-0.99-0.225-1.529c-0.15-0.541-0.285-0.9-0.404-1.08l-3.871-10.801
	c-0.48-1.318-0.914-2.1-1.305-2.34c-0.391-0.239-1.186-0.359-2.385-0.359H157.172z M166.623,95.249c1.02,0,1.619-0.075,1.8-0.225
	c0.181-0.148,0.271-0.282,0.271-0.403c0-0.237-0.061-0.506-0.181-0.804c-0.12-0.299-0.24-0.598-0.36-0.897l-6.299-15.401
	l-5.581,15.133c-0.061,0.121-0.135,0.359-0.225,0.717c-0.09,0.359-0.135,0.687-0.135,0.984c0,0.479,0.149,0.748,0.45,0.807
	c0.299,0.06,0.869,0.09,1.71,0.09H166.623z"/>
<path d="M203.701,72.298c0-0.9-0.031-1.739-0.09-2.52c-0.061-0.779-0.225-1.44-0.496-1.98c-0.27-0.54-0.719-0.975-1.35-1.305
	c-0.629-0.329-1.516-0.525-2.654-0.585c-0.961-0.059-1.727-0.165-2.295-0.315c-0.57-0.149-0.855-0.554-0.855-1.215
	c0-0.66,0.225-1.035,0.676-1.125c0.449-0.09,0.854-0.135,1.215-0.135c0.779,0,2.219,0.06,4.32,0.18c2.1,0.121,4.318,0.18,6.66,0.18
	c2.879,0,5.143-0.059,6.795-0.18c1.648-0.12,2.893-0.18,3.734-0.18c0.359,0,0.766,0.045,1.215,0.135s0.676,0.465,0.676,1.125
	c0,0.661-0.303,1.066-0.9,1.215c-0.602,0.151-1.35,0.256-2.25,0.315c-1.141,0.06-2.025,0.256-2.656,0.585
	c-0.629,0.33-1.109,0.765-1.439,1.305s-0.525,1.17-0.584,1.89c-0.061,0.72-0.09,1.5-0.09,2.34v35.91c0,2.88,0.494,5.056,1.484,6.525
	c0.99,1.471,2.895,2.205,5.715,2.205c1.08,0,2.264-0.09,3.555-0.271c1.289-0.181,2.625-0.614,4.006-1.306
	c1.379-0.688,2.758-1.678,4.139-2.969c1.381-1.29,2.67-3.074,3.871-5.355c0.359-0.721,0.779-1.08,1.26-1.08
	c0.479,0,0.795,0.15,0.945,0.45c0.148,0.301,0.225,0.63,0.225,0.989c0,0.181-0.061,0.752-0.18,1.711
	c-0.121,0.96-0.256,2.011-0.406,3.149c-0.15,1.141-0.301,2.236-0.449,3.285c-0.15,1.05-0.225,1.755-0.225,2.115
	c-0.121,0.841-0.314,1.41-0.586,1.71c-0.27,0.299-0.824,0.449-1.664,0.449c-0.18,0-0.436-0.015-0.766-0.045
	s-1.156-0.075-2.475-0.135c-1.32-0.061-3.361-0.105-6.121-0.135c-2.76-0.031-6.689-0.045-11.789-0.045
	c-3.779,0-6.705,0.014-8.775,0.045c-2.07,0.029-3.615,0.074-4.635,0.135c-1.021,0.06-1.664,0.104-1.936,0.135
	c-0.27,0.03-0.525,0.045-0.764,0.045c-0.301,0-0.676-0.045-1.125-0.135c-0.451-0.09-0.676-0.464-0.676-1.125
	c0-0.659,0.299-1.049,0.9-1.17c0.6-0.119,1.35-0.238,2.25-0.359c1.139-0.06,2.025-0.255,2.654-0.586
	c0.631-0.328,1.08-0.778,1.35-1.35c0.271-0.569,0.436-1.229,0.496-1.98c0.059-0.749,0.09-1.604,0.09-2.564V72.298z"/>
<path d="M248.609,72.298c0-0.9-0.029-1.739-0.09-2.52c-0.061-0.779-0.225-1.44-0.494-1.98s-0.707-0.975-1.305-1.305
	c-0.602-0.329-1.471-0.525-2.611-0.585c-1.02-0.059-1.814-0.165-2.385-0.315c-0.57-0.149-0.855-0.554-0.855-1.215
	c0-0.66,0.227-1.035,0.676-1.125s0.824-0.135,1.125-0.135c0.119,0,0.27,0.015,0.449,0.045c0.182,0.031,0.779,0.076,1.801,0.135
	c1.02,0.061,2.564,0.105,4.635,0.135c2.07,0.031,5.025,0.045,8.865,0.045h4.32c4.619,0,8.189-0.014,10.709-0.045
	c2.521-0.03,4.381-0.075,5.58-0.135c1.201-0.059,1.92-0.104,2.16-0.135c0.24-0.03,0.42-0.045,0.541-0.045
	c0.539,0,0.855,0.211,0.945,0.63c0.09,0.42,0.135,1.141,0.135,2.16v8.28c0,0.24-0.031,0.556-0.09,0.945
	c-0.061,0.391-0.332,0.585-0.811,0.585c-0.48,0-0.871-0.194-1.17-0.585c-0.301-0.389-0.842-1.424-1.621-3.105
	c-0.301-0.599-0.689-1.229-1.17-1.89c-0.48-0.66-1.291-1.274-2.43-1.845c-1.141-0.569-2.699-1.049-4.68-1.44
	c-1.98-0.39-4.561-0.585-7.74-0.585c-1.141,0-2.025,0.061-2.654,0.18c-0.631,0.121-1.111,0.36-1.439,0.72
	c-0.332,0.36-0.541,0.871-0.631,1.53c-0.09,0.661-0.135,1.561-0.135,2.7v13.05c0,0.721,0.029,1.32,0.09,1.801
	c0.059,0.48,0.254,0.854,0.586,1.125c0.328,0.27,0.838,0.449,1.529,0.539c0.689,0.09,1.693,0.135,3.016,0.135
	c2.52,0,4.5-0.135,5.939-0.404s2.578-0.676,3.42-1.215c0.84-0.54,1.453-1.229,1.846-2.07c0.389-0.839,0.793-1.859,1.215-3.06
	c0.238-0.599,0.463-0.975,0.674-1.125c0.209-0.149,0.436-0.225,0.676-0.225c0.658,0,0.99,0.421,0.99,1.26
	c0,0.301-0.031,1.035-0.09,2.205c-0.061,1.169-0.137,2.429-0.227,3.78s-0.166,2.655-0.225,3.915c-0.061,1.26-0.09,2.131-0.09,2.609
	c0,0.181,0.014,0.481,0.045,0.9c0.029,0.421,0.059,0.871,0.09,1.35c0.029,0.481,0.059,0.932,0.09,1.351
	c0.029,0.421,0.045,0.72,0.045,0.899c0,0.302-0.045,0.676-0.135,1.125c-0.09,0.451-0.404,0.676-0.945,0.676
	c-0.359,0-0.674-0.148-0.943-0.45c-0.271-0.3-0.527-0.869-0.766-1.71c-0.48-1.739-1.021-3.074-1.621-4.005
	c-0.6-0.93-1.35-1.62-2.25-2.069c-0.898-0.451-1.979-0.721-3.238-0.811c-1.262-0.09-2.822-0.135-4.682-0.135
	c-1.08,0-1.949,0.016-2.609,0.045c-0.66,0.031-1.17,0.135-1.529,0.314c-0.361,0.18-0.602,0.45-0.721,0.811
	c-0.121,0.359-0.18,0.87-0.18,1.529v15.48c0,1.62,0.135,2.91,0.404,3.87c0.271,0.96,0.766,1.696,1.486,2.204
	c0.719,0.512,1.678,0.855,2.879,1.035c1.199,0.181,2.76,0.271,4.68,0.271c0.959,0,2.025-0.045,3.195-0.135
	c1.17-0.091,2.354-0.374,3.555-0.854c1.199-0.48,2.371-1.23,3.51-2.25c1.141-1.02,2.221-2.49,3.24-4.41
	c0.84-1.561,1.381-2.535,1.621-2.926c0.238-0.389,0.568-0.585,0.99-0.585c0.418,0,0.703,0.151,0.854,0.45
	c0.15,0.301,0.227,0.601,0.227,0.9c0,0.301-0.061,0.84-0.182,1.619c-0.119,0.781-0.24,1.682-0.359,2.701
	c-0.121,1.02-0.256,2.055-0.404,3.104c-0.15,1.05-0.256,1.995-0.316,2.835c-0.059,0.841-0.346,1.5-0.854,1.98
	c-0.512,0.479-1.426,0.719-2.746,0.719c-2.281,0-4.875-0.015-7.785-0.045s-5.686-0.075-8.324-0.135
	c-2.58-0.061-4.801-0.105-6.66-0.135c-1.861-0.031-2.939-0.045-3.24-0.045h-1.08c-1.859,0-3.375,0.014-4.545,0.045
	c-1.17,0.029-2.115,0.074-2.834,0.135c-0.721,0.06-1.291,0.104-1.711,0.135s-0.779,0.045-1.08,0.045
	c-0.359,0-0.766-0.061-1.215-0.18c-0.449-0.121-0.676-0.509-0.676-1.17c0-0.659,0.301-1.049,0.9-1.17
	c0.6-0.119,1.381-0.238,2.34-0.359c1.141-0.06,2.01-0.255,2.611-0.586c0.598-0.328,1.035-0.765,1.305-1.305s0.434-1.199,0.494-1.98
	c0.061-0.778,0.09-1.619,0.09-2.52V72.298z"/>
<path fill-rule="evenodd" clip-rule="evenodd" d="M196.693,24.4c1.704,1.576,2.729,3.531,2.729,5.657
	c0,5.199-6.047,9.414-13.504,9.414c-7.458,0-13.504-4.214-13.504-9.414c0-3.519,2.774-6.581,6.877-8.196L161.241,0L143.43,21.506
	c4.649,1.487,7.886,4.752,7.886,8.551c0,5.199-6.046,9.414-13.505,9.414c-7.457,0-13.503-4.214-13.503-9.414
	c0-1.96,0.861-3.78,2.33-5.287L93.801,11.121l21.295,43.516c13.83-2.903,29.955-4.577,47.191-4.577
	c16.562,0,32.098,1.546,45.562,4.244l21.313-43.294L196.693,24.4z"/>
</svg>
